<svg width="30" height="30" viewBox="0 0 30 30" fill="none" xmlns="http://www.w3.org/2000/svg">
<path d="M25.6055 0H4.39453C1.97136 0 0 1.97136 0 4.39453V25.6055C0 28.0286 1.97136 30 4.39453 30H25.6055C28.0286 30 30 28.0286 30 25.6055V4.39453C30 1.97136 28.0286 0 25.6055 0ZM28.2422 25.6055C28.2422 27.0593 27.0593 28.2422 25.6055 28.2422H4.39453C2.94067 28.2422 1.75781 27.0593 1.75781 25.6055V4.39453C1.75781 2.94067 2.94067 1.75781 4.39453 1.75781H25.6055C27.0593 1.75781 28.2422 2.94067 28.2422 4.39453V25.6055Z" fill="white"/>
<path d="M14.1211 12.3633C14.1211 10.4247 12.5441 8.84766 10.6055 8.84766H5.33203V21.1523H10.6055C12.5441 21.1523 14.1211 19.5753 14.1211 17.6367C14.1211 16.5875 13.6585 15.6448 12.927 15C13.6585 14.3552 14.1211 13.4125 14.1211 12.3633ZM12.3633 17.6367C12.3633 18.606 11.5748 19.3945 10.6055 19.3945H7.08984V15.8789H10.6055C11.5748 15.8789 12.3633 16.6674 12.3633 17.6367ZM7.08984 14.1211V10.6055H10.6055C11.5748 10.6055 12.3633 11.394 12.3633 12.3633C12.3633 13.3326 11.5748 14.1211 10.6055 14.1211H7.08984Z" fill="white"/>
<path d="M20.2734 12.3633C17.8503 12.3633 15.8789 14.3346 15.8789 16.7578C15.8789 19.181 17.8503 21.1523 20.2734 21.1523C21.8374 21.1523 23.2958 20.3107 24.0795 18.9558L22.5579 18.0755C22.0873 18.8892 21.2119 19.3945 20.2734 19.3945C19.1274 19.3945 18.1501 18.6598 17.7873 17.6367H24.668V16.7578C24.668 14.3346 22.6966 12.3633 20.2734 12.3633ZM17.7873 15.8789C18.1501 14.8558 19.1274 14.1211 20.2734 14.1211C21.4194 14.1211 22.3968 14.8558 22.7596 15.8789H17.7873Z" fill="white"/>
<path d="M16.7578 8.84766H23.7891V10.6055H16.7578V8.84766Z" fill="white"/>
</svg>
