<svg width="30" height="30" viewBox="0 0 30 30" fill="none" xmlns="http://www.w3.org/2000/svg">
<path d="M18.6286 4.07158C10.9622 3.99432 6.14237 3.21439 2.22742 9.3968C0.00144971 12.9138 -0.463068 18.9859 0.421373 20.9339C1.51206 23.3399 4.07062 24.6293 8.47238 24.9954C9.66341 25.0671 9.92539 23.9726 11.1517 22.6869C13.3758 23.1394 16.62 23.1394 18.846 22.6869C20.1485 24.0885 20.3789 25.0763 21.5253 24.9954C25.9271 24.6312 28.4875 23.3399 29.5782 20.9339C30.4645 18.9822 29.9962 12.9102 27.7721 9.3968C24.1173 3.62459 18.7308 4.06054 18.6286 4.07158V4.07158ZM27.0363 19.8044C26.8208 20.2827 26.1835 21.688 22.0196 22.1736L21.9341 22.0706C22.0419 21.9934 24.4072 20.2845 24.5038 20.1944C25.7821 19.0245 24.1396 17.0489 22.7331 18.0698C22.7331 18.0698 19.8735 20.2992 15.0016 20.2992C9.88266 20.2992 7.72916 18.3255 7.27021 18.0698C5.86551 17.0471 4.22112 19.0245 5.49947 20.1944C5.59609 20.2827 7.96327 21.9934 8.06918 22.0706L7.98371 22.1736C3.82164 21.688 3.18432 20.2845 2.96693 19.8026C2.57859 18.9215 2.70866 13.8354 4.59274 10.8628C6.14051 8.41821 8.40921 6.8326 11.3747 6.8326C18.4762 6.67441 22.341 6.00852 25.4142 10.8628C27.2928 13.8354 27.4247 18.9233 27.0363 19.8044V19.8044Z" fill="white"/>
<path d="M10.001 11C5.9988 11 6.00055 18 10.001 18C13.9927 18 14.0067 11 10.001 11V11ZM9.71399 14.1406C9.86098 13.9401 10.3842 14.0373 10.3842 14.499C10.3825 15.4102 9.19425 14.8189 9.71399 14.1406Z" fill="white"/>
<path d="M16 14.4994C16 19.1554 22 19.1777 22 14.5014C21.9983 9.84539 16 9.82104 16 14.4994ZM18.7138 14.1403C18.8604 13.9394 19.3805 13.9557 19.3805 14.5014C19.3805 15.4143 18.2007 14.8159 18.7138 14.1403Z" fill="white"/>
</svg>
