<svg width="30" height="30" viewBox="0 0 30 30" fill="none" xmlns="http://www.w3.org/2000/svg">
<path d="M29.3617 0H0.638265C0.285857 0 0 0.28549 0 0.638327V29.3617C0 29.7146 0.285857 30 0.638265 30H29.3617C29.7142 30 30 29.7146 30 29.3617V0.638327C30 0.28549 29.7142 0 29.3617 0ZM1.27659 1.27659H28.7234V7.48941H1.27659V1.27659ZM28.7234 28.7234H1.27659V8.766H28.7234V28.7234Z" fill="white"/>
<path d="M19.445 3.41095H18.1684V5.35581H19.445V3.41095Z" fill="white"/>
<path d="M23.363 3.41095H22.0864V5.35581H23.363V3.41095Z" fill="white"/>
<path d="M27.2813 3.41095H26.0047V5.35581H27.2813V3.41095Z" fill="white"/>
<path d="M10.8423 19.8526L7.33861 18.1936L10.8423 16.5785V14.9741L5.53837 17.4733V18.9685L10.8423 21.4677V19.8526Z" fill="white"/>
<path d="M18.0664 13.7409H16.5166L11.9445 23.7488H13.4827L18.0664 13.7409Z" fill="white"/>
<path d="M24.4619 17.4733L19.1579 14.9741V16.5785L22.6616 18.1936L19.1579 19.8526V21.4677L24.4619 18.9685V17.4733Z" fill="white"/>
</svg>
