<svg width="31" height="30" viewBox="0 0 31 30" fill="none" xmlns="http://www.w3.org/2000/svg">
<g clip-path="url(#clip0)">
<path d="M2.63133 19.94L1.42597 20.4108C0.148147 20.6979 -0.407749 22.1177 0.330693 23.2462C1.05767 24.3573 2.64257 24.7534 3.85778 24.9905C3.933 25.3363 4.04194 25.7831 4.31094 26.1734C4.72786 26.7781 5.38833 27.0446 6.17012 26.9235C8.81543 26.5151 9.11333 26.7263 10.1011 27.4262C10.5902 27.7727 11.3816 28.305 11.9208 28.5593C12.8716 28.951 13.9499 29.1462 15.0277 29.1462C17.0812 29.1462 18.4065 28.4373 18.4122 28.4355C19.5953 27.756 21.1509 26.2009 23.5318 26.8233C24.2312 27.0061 24.8233 26.9472 25.2923 26.6483C25.9649 26.2197 26.1282 25.468 26.2179 24.9836C27.5707 24.7068 29.3274 24.3002 29.9085 22.9022C30.1248 22.3821 30.1066 21.812 29.8587 21.3387C29.6228 20.8874 29.1955 20.5576 28.6791 20.4248L27.4324 19.9418C26.0062 19.3891 24.9164 18.2787 24.3342 16.8204H25.6563C27.113 16.8204 28.2981 15.6352 28.2981 14.1783C28.2981 12.7216 27.113 11.5364 25.6563 11.5364H23.8985L23.9748 10.6994C24.4482 5.49153 20.2863 0.968689 15.0298 0.968689C9.78871 0.968689 5.60986 5.47502 6.08481 10.6996L6.16117 11.5364H4.40313C2.94643 11.5364 1.76125 12.7216 1.76125 14.1785C1.76125 15.6352 2.94643 16.8197 4.40313 16.8197H5.7415C5.15831 18.2698 4.06349 19.3804 2.63133 19.94V19.94ZM4.40313 15.0592C3.91764 15.0592 3.5225 14.664 3.5225 14.1785C3.5225 13.6928 3.91764 13.2977 4.40313 13.2977H8.09052L7.83895 10.54C7.44955 6.25612 10.9081 2.72994 15.0298 2.72994C19.1495 2.72994 22.6101 6.25474 22.2207 10.5398L21.9693 13.2977H25.6563C26.142 13.2977 26.5369 13.6928 26.5369 14.1785C26.5369 14.664 26.142 15.0592 25.6563 15.0592H22.0673L22.2911 16.1214C22.8332 18.6938 24.4752 20.6849 26.796 21.5841L28.1628 22.1138C28.228 22.1328 28.2241 22.1182 28.2975 22.1537C28.2991 22.159 28.2995 22.1842 28.2821 22.2262C28.0365 22.8172 26.5195 23.1252 25.7044 23.2907C25.6031 23.3114 25.5051 23.3311 25.4118 23.3506C24.6979 23.5001 24.5674 24.2168 24.4972 24.6018C24.4693 24.7552 24.4124 25.0676 24.3436 25.1609C24.311 25.1671 24.2021 25.1781 23.9771 25.1192C20.825 24.2954 18.6821 26.2303 17.5724 26.8866C16.0854 27.5377 14.1565 27.5613 12.6317 26.9472C11.9612 26.5857 11.5144 26.2693 11.1193 25.9893C9.82403 25.0715 9.11609 24.6867 5.90111 25.1832C5.82727 25.1944 5.78736 25.1912 5.77154 25.1887C5.68096 25.0923 5.59886 24.7091 5.56308 24.5431C5.47754 24.1438 5.33421 23.4756 4.64783 23.3474L4.58407 23.3354C3.81123 23.1914 2.2034 22.8917 1.8046 22.2819C1.75621 22.2081 1.75896 22.1601 1.76377 22.1491C1.7718 22.1305 1.89014 22.117 1.91123 22.1122L3.27208 21.5806C5.57478 20.6812 7.23512 18.6768 7.77772 16.162L8.01668 15.0592H4.40313Z" fill="white"/>
</g>
<defs>
<clipPath id="clip0">
<rect width="30.0587" height="30" fill="white"/>
</clipPath>
</defs>
</svg>
