<svg width="30" height="30" viewBox="0 0 30 30" fill="none" xmlns="http://www.w3.org/2000/svg">
<g clip-path="url(#clip0)">
<path d="M29.5367 2.98004C29.1703 2.53189 28.6214 2.28516 27.9911 2.28516C27.6485 2.28516 27.2855 2.35725 26.9124 2.49985L1.51794 12.1937C0.170282 12.708 -0.0112215 13.4798 0.000451442 13.894C0.0121244 14.3083 0.237115 15.0687 1.61178 15.5061C1.62002 15.5086 1.62826 15.5111 1.6365 15.5134L6.90399 17.0208L9.75265 25.1667C10.1411 26.2772 11.0129 26.9671 12.0282 26.9671C12.6684 26.9671 13.298 26.6988 13.8492 26.1916L17.1073 23.1917L21.833 26.9968C21.8335 26.9973 21.8342 26.9975 21.8346 26.998L21.8795 27.0341C21.8836 27.0374 21.888 27.0408 21.8921 27.044C22.4174 27.4514 22.9907 27.6665 23.5508 27.6668H23.551C24.6453 27.6668 25.5167 26.8568 25.7705 25.6034L29.9313 5.05806C30.0984 4.2334 29.9583 3.49548 29.5367 2.98004V2.98004ZM8.66615 16.7345L18.8287 11.5427L12.5008 18.2666C12.3971 18.3767 12.3237 18.5115 12.2875 18.6582L11.0673 23.6007L8.66615 16.7345ZM12.6583 24.8985C12.6162 24.9371 12.5738 24.9717 12.5315 25.0035L13.6636 20.4185L15.7228 22.0768L12.6583 24.8985ZM28.2085 4.70901L24.0477 25.2546C24.0076 25.4512 23.8797 25.9087 23.5508 25.9087C23.3883 25.9087 23.1841 25.8202 22.9752 25.6593L17.6202 21.3476C17.6195 21.3469 17.6186 21.3462 17.6177 21.3457L14.4315 18.78L23.5824 9.0564C23.8753 8.74512 23.9019 8.26836 23.6453 7.92641C23.3885 7.58446 22.9232 7.47688 22.5426 7.67143L7.49175 15.3605L2.15263 13.8329L27.5393 4.14207C27.7537 4.06013 27.9034 4.04297 27.9911 4.04297C28.0449 4.04297 28.1406 4.04938 28.176 4.09309C28.2227 4.15009 28.2822 4.34441 28.2085 4.70901V4.70901Z" fill="white"/>
</g>
<defs>
<clipPath id="clip0">
<rect width="30" height="30" fill="white"/>
</clipPath>
</defs>
</svg>
