<svg width="30" height="30" viewBox="0 0 30 30" fill="none" xmlns="http://www.w3.org/2000/svg">
<path d="M11.25 1.875C5.04562 1.875 0 6.08063 0 11.25C0 13.9819 1.395 16.5169 3.85687 18.3169L2.91187 20.2069C2.73562 20.5575 2.7975 20.9831 3.0675 21.2681C3.2475 21.4594 3.49687 21.5625 3.75 21.5625C3.87375 21.5625 3.99938 21.5381 4.11938 21.4875L7.43437 20.0681C8.98875 20.5388 10.6463 20.6813 12.3094 20.5856C12.8269 20.5594 13.2244 20.1169 13.1963 19.5994C13.1681 19.08 12.6769 18.6562 12.21 18.7144C10.6575 18.7931 9.11625 18.6562 7.68375 18.1781C7.46625 18.1069 7.23 18.1181 7.01813 18.2063L5.73375 18.7575L5.9025 18.4181C6.11813 17.9869 5.97 17.46 5.55937 17.205C3.2175 15.7425 1.875 13.5731 1.875 11.25C1.875 7.11375 6.08063 3.75 11.25 3.75C16.4194 3.75 20.625 7.11375 20.625 11.25C20.625 11.5313 20.6119 11.7956 20.565 12.06C20.4731 12.57 20.8144 13.0575 21.3225 13.1475C21.84 13.2431 22.3181 12.9 22.41 12.39C22.4756 12.0169 22.5 11.6437 22.5 11.25C22.5 6.08063 17.4544 1.875 11.25 1.875Z" fill="white"/>
<path d="M26.8219 24.3581C28.8263 22.9406 30 20.8969 30 18.75C30 14.6137 25.7944 11.25 20.625 11.25C15.4556 11.25 11.25 14.6137 11.25 18.75C11.25 23.3306 16.35 27.0281 22.32 26.1206L26.8181 28.05C26.9363 28.0988 27.0638 28.125 27.1875 28.125C27.4406 28.125 27.69 28.0219 27.87 27.8288C28.1419 27.5438 28.2037 27.12 28.0275 26.7675L26.8219 24.3581ZM25.14 23.2088C24.7087 23.4563 24.5456 23.9962 24.7669 24.4406L25.2038 25.3181L22.8075 24.2888C22.6912 24.24 22.5638 24.2137 22.4381 24.2137C22.3838 24.2137 22.3312 24.2175 22.2787 24.2269C21.7031 24.3281 21.1613 24.375 20.625 24.375C16.4887 24.375 13.125 21.8513 13.125 18.75C13.125 15.6487 16.4887 13.125 20.625 13.125C24.7613 13.125 28.125 15.6487 28.125 18.75C28.125 20.4975 27.0375 22.1231 25.14 23.2088Z" fill="white"/>
<path d="M7.53749 7.5H7.51874C7.00124 7.5 6.59062 7.92 6.59062 8.4375C6.59062 8.955 7.01999 9.375 7.53749 9.375C8.05499 9.375 8.47499 8.955 8.47499 8.4375C8.47499 7.92 8.05499 7.5 7.53749 7.5Z" fill="white"/>
<path d="M15.0375 7.5H15.0188C14.5013 7.5 14.0906 7.92 14.0906 8.4375C14.0906 8.955 14.52 9.375 15.0375 9.375C15.555 9.375 15.975 8.955 15.975 8.4375C15.975 7.92 15.555 7.5 15.0375 7.5Z" fill="white"/>
<path d="M17.85 15.9375H17.8313C17.3119 15.9375 16.9031 16.3575 16.9031 16.875C16.9031 17.3925 17.3325 17.8125 17.85 17.8125C18.3675 17.8125 18.7875 17.3925 18.7875 16.875C18.7875 16.3575 18.3675 15.9375 17.85 15.9375Z" fill="white"/>
<path d="M23.475 15.9375H23.4563C22.9388 15.9375 22.5281 16.3575 22.5281 16.875C22.5281 17.3925 22.9594 17.8125 23.475 17.8125C23.9925 17.8125 24.4125 17.3925 24.4125 16.875C24.4125 16.3575 23.9925 15.9375 23.475 15.9375Z" fill="white"/>
</svg>
